<?xml version="1.0" encoding="UTF-8"?>
<svg width="81px" height="72px" viewBox="0 0 81 72" version="1.1" xmlns="http://www.w3.org/2000/svg" xmlns:xlink="http://www.w3.org/1999/xlink">
    <!-- Generator: Sketch 40.1 (33804) - http://www.bohemiancoding.com/sketch -->
    <title></title>
    <desc>Created with Sketch.</desc>
    <defs></defs>
    <g id="Page-1" stroke="none" stroke-width="1" fill="none" fill-rule="evenodd">
        <path d="M39.2763158,42.9473684 L39.2763158,69.4736842 L30.4342105,69.4736842 L30.4342105,72 L50.6447368,72 L50.6447368,69.4736842 L41.8026316,69.4736842 L41.8026316,42.9473684 L54.4342105,42.9473684 L54.4342105,25.2631579 L41.8026316,25.2631579 L41.8026316,22.7368421 L70.0657895,22.7368421 L80.3289474,13.8947368 L70.0657895,5.05263158 L41.8026316,5.05263158 L41.8026316,0 L39.2763158,0 L39.2763158,5.05263158 L26.6447368,5.05263158 L26.6447368,22.7368421 L39.2763158,22.7368421 L39.2763158,25.2631579 L11.0131579,25.2631579 L0.75,34.1052632 L11.0131579,42.9473684 L39.2763158,42.9473684 Z M29.1710526,7.57894737 L69.1184211,7.57894737 L76.5394737,13.8947368 L69.1184211,20.2105263 L29.1710526,20.2105263 L29.1710526,7.57894737 Z M11.9605263,27.7894737 L51.9078947,27.7894737 L51.9078947,40.4210526 L11.9605263,40.4210526 L4.53947368,34.1052632 L11.9605263,27.7894737 Z" id="" fill="#ffffff"></path>
    </g>
</svg>
