<?xml version="1.0" encoding="UTF-8"?>
<svg width="214px" height="16px" viewBox="0 0 214 16" version="1.1" xmlns="http://www.w3.org/2000/svg" xmlns:xlink="http://www.w3.org/1999/xlink">
    <!-- Generator: Sketch 40.1 (33804) - http://www.bohemiancoding.com/sketch -->
    <title>logo-black</title>
    <desc>Created with Sketch.</desc>
    <defs></defs>
    <g id="Page-1" stroke="none" stroke-width="1" fill="none" fill-rule="evenodd">
        <g id="Group" fill="#000000">
            <path d="M0.693359375,15 L0.693359375,13.7695312 L2.28515625,13.4960938 L2.28515625,2.29492188 L0.693359375,2.02148438 L0.693359375,0.78125 L11.6113281,0.78125 L11.6113281,4.19921875 L9.9609375,4.19921875 L9.8046875,2.29492188 L4.20898438,2.29492188 L4.20898438,6.89453125 L9.6484375,6.89453125 L9.6484375,8.40820312 L4.20898438,8.40820312 L4.20898438,13.4960938 L9.921875,13.4960938 L10.078125,11.5917969 L11.71875,11.5917969 L11.71875,15 L0.693359375,15 Z M30.8402343,4.98046875 L29.3851562,4.98046875 L29.023828,2.94921875 C28.7308578,2.70182168 28.3402367,2.49674561 27.851953,2.33398438 C27.3636693,2.17122314 26.7972688,2.08984375 26.1527343,2.08984375 C25.1305938,2.08984375 24.3460964,2.30631294 23.7992187,2.73925781 C23.2523409,3.17220269 22.9789062,3.73697568 22.9789062,4.43359375 C22.9789062,5.05208643 23.2572237,5.56803179 23.8138671,5.98144531 C24.3705105,6.39485884 25.2705666,6.75781094 26.5140624,7.0703125 C28.0114657,7.44140811 29.1491497,7.98827764 29.9271483,8.7109375 C30.705147,9.43359736 31.0941405,10.3287707 31.0941405,11.3964844 C31.0941405,12.5423234 30.6270228,13.4635382 29.6927733,14.1601562 C28.7585239,14.8567743 27.5362054,15.2050781 26.0257812,15.2050781 C24.9320257,15.2050781 23.9603557,15.0260435 23.1107421,14.6679688 C22.2611285,14.309894 21.5694036,13.8411487 21.0355468,13.2617188 L21.0355468,10.6152344 L22.4808593,10.6152344 L22.851953,12.65625 C23.2230486,12.9622411 23.6657525,13.2128896 24.180078,13.4082031 C24.6944035,13.6035166 25.3096317,13.7011719 26.0257812,13.7011719 C26.9958381,13.7011719 27.762432,13.4960958 28.3255858,13.0859375 C28.8887397,12.6757792 29.1703124,12.1191441 29.1703124,11.4160156 C29.1703124,10.7649707 28.9261742,10.2197288 28.4378905,9.78027344 C27.9496068,9.34081812 27.0869853,8.97135566 25.8499999,8.671875 C24.3460861,8.31380029 23.1709677,7.78646182 22.3246093,7.08984375 C21.4782509,6.39322568 21.055078,5.5175834 21.055078,4.46289062 C21.055078,3.34960381 21.5270785,2.4235063 22.4710937,1.68457031 C23.4151088,0.945634326 24.6423101,0.576171875 26.1527343,0.576171875 C27.148833,0.576171875 28.0553995,0.747068604 28.8724608,1.08886719 C29.6895222,1.43066577 30.3454401,1.84570068 30.8402343,2.33398438 L30.8402343,4.98046875 Z M50.8503904,5.14648438 L49.4929686,5.14648438 L49.1316404,3.13476562 C48.8191389,2.82877451 48.4350281,2.57812598 47.9792967,2.3828125 C47.5235652,2.18749902 46.9799509,2.08984375 46.3484373,2.08984375 C44.8705653,2.08984375 43.734509,2.62532017 42.9402342,3.69628906 C42.1459594,4.76725796 41.7488279,6.12629385 41.7488279,7.7734375 L41.7488279,7.99804688 C41.7488279,9.64519053 42.1378214,11.0074816 42.9158201,12.0849609 C43.6938188,13.1624403 44.7729096,13.7011719 46.1531248,13.7011719 C46.7976593,13.7011719 47.3835909,13.6002614 47.9109373,13.3984375 C48.4382837,13.1966136 48.8451807,12.9492202 49.1316404,12.65625 L49.4929686,10.6445312 L50.8503904,10.6445312 L50.8503904,13.1738281 C50.4402321,13.7011745 49.8250039,14.1715474 49.0046873,14.5849609 C48.1843707,14.9983745 47.2338594,15.2050781 46.1531248,15.2050781 C44.3041572,15.2050781 42.7872453,14.5214912 41.6023436,13.1542969 C40.4174418,11.7871025 39.8249998,10.0683697 39.8249998,7.99804688 L39.8249998,7.79296875 C39.8249998,5.709625 40.4076763,3.98600942 41.5730467,2.62207031 C42.7384171,1.2581312 44.2650945,0.576171875 46.1531248,0.576171875 C47.2338594,0.576171875 48.1843707,0.786130713 49.0046873,1.20605469 C49.8250039,1.62597866 50.4402321,2.09635156 50.8503904,2.6171875 L50.8503904,5.14648438 Z M59.6691403,13.7695312 L60.7238278,13.6230469 L65.694531,0.78125 L67.3449216,0.78125 L72.2277341,13.6230469 L73.272656,13.7695312 L73.272656,15 L69.1906247,15 L69.1906247,13.7695312 L70.2648435,13.5839844 L69.3273435,10.9667969 L63.6339841,10.9667969 L62.6671872,13.5839844 L63.741406,13.7695312 L63.741406,15 L59.6691403,15 L59.6691403,13.7695312 Z M64.2296872,9.35546875 L68.741406,9.35546875 L66.5343747,3.25195312 L66.475781,3.25195312 L64.2296872,9.35546875 Z M88.1070309,0.78125 C89.6239655,0.78125 90.8039668,1.17187109 91.6470699,1.953125 C92.4901731,2.73437891 92.9117184,3.76301445 92.9117184,5.0390625 C92.9117184,6.32813145 92.4901731,7.36002217 91.6470699,8.13476562 C90.8039668,8.90950908 89.6239655,9.296875 88.1070309,9.296875 L85.0894527,9.296875 L85.0894527,13.4960938 L86.6812496,13.7695312 L86.6812496,15 L81.5738277,15 L81.5738277,13.7695312 L83.1656246,13.4960938 L83.1656246,2.29492188 L81.5738277,2.02148438 L81.5738277,0.78125 L83.1656246,0.78125 L88.1070309,0.78125 Z M85.0894527,7.79296875 L88.1070309,7.79296875 C89.0705774,7.79296875 89.7915988,7.53418228 90.2701168,7.01660156 C90.7486348,6.49902085 90.9878902,5.84635811 90.9878902,5.05859375 C90.9878902,4.27082939 90.7486348,3.61328389 90.2701168,3.0859375 C89.7915988,2.55859111 89.0705774,2.29492188 88.1070309,2.29492188 L85.0894527,2.29492188 L85.0894527,7.79296875 Z M101.378906,15 L101.378906,13.7695312 L102.970703,13.4960938 L102.970703,2.29492188 L101.378906,2.02148438 L101.378906,0.78125 L112.296875,0.78125 L112.296875,4.19921875 L110.646484,4.19921875 L110.490234,2.29492188 L104.894531,2.29492188 L104.894531,6.89453125 L110.333984,6.89453125 L110.333984,8.40820312 L104.894531,8.40820312 L104.894531,13.4960938 L110.607421,13.4960938 L110.763671,11.5917969 L112.404296,11.5917969 L112.404296,15 L101.378906,15 Z M137.385546,2.02148438 L135.940234,2.24609375 L137.766406,10.078125 L138.030077,11.8554688 L138.088671,11.8652344 L138.469531,10.078125 L141.086718,0.78125 L142.785937,0.78125 L145.41289,10.078125 L145.803515,11.9042969 L145.862109,11.9042969 L146.145312,10.078125 L147.932421,2.24609375 L146.477343,2.02148438 L146.477343,0.78125 L150.998827,0.78125 L150.998827,2.02148438 L149.856249,2.16796875 L146.760546,15 L145.041796,15 L142.229296,5.13671875 L141.97539,3.85742188 L141.916796,3.85742188 L141.672656,5.13671875 L138.821093,15 L137.112109,15 L134.016406,2.16796875 L132.873827,2.02148438 L132.873827,0.78125 L137.385546,0.78125 L137.385546,2.02148438 Z M171.721874,7.99804688 C171.721874,10.0683697 171.127805,11.7871025 169.939648,13.1542969 C168.751491,14.5214912 167.21342,15.2050781 165.32539,15.2050781 C163.489443,15.2050781 161.998573,14.5214912 160.852734,13.1542969 C159.706895,11.7871025 159.133984,10.0683697 159.133984,7.99804688 L159.133984,7.79296875 C159.133984,5.72915635 159.706895,4.01042354 160.852734,2.63671875 C161.998573,1.26301396 163.489443,0.576171875 165.32539,0.576171875 C167.21342,0.576171875 168.751491,1.26301396 169.939648,2.63671875 C171.127805,4.01042354 171.721874,5.72915635 171.721874,7.79296875 L171.721874,7.99804688 Z M169.798046,7.7734375 C169.798046,6.1197834 169.402542,4.77051304 168.611523,3.72558594 C167.820503,2.68065884 166.725136,2.15820312 165.32539,2.15820312 C163.984237,2.15820312 162.937698,2.68228643 162.185741,3.73046875 C161.433785,4.77865107 161.057812,6.12629385 161.057812,7.7734375 L161.057812,7.99804688 C161.057812,9.66472187 161.433785,11.0205026 162.185741,12.0654297 C162.937698,13.1103568 163.984237,13.6328125 165.32539,13.6328125 C166.744668,13.6328125 167.844917,13.1119844 168.626171,12.0703125 C169.407425,11.0286406 169.798046,9.67123232 169.798046,7.99804688 L169.798046,7.7734375 Z M186.507421,0.791015625 C188.056908,0.791015625 189.245047,1.13443667 190.071874,1.82128906 C190.898701,2.50814146 191.312109,3.4830666 191.312109,4.74609375 C191.312109,5.43620137 191.120053,6.04817441 190.735937,6.58203125 C190.35182,7.11588809 189.801695,7.53580576 189.085546,7.84179688 C189.860289,8.09570439 190.418552,8.50911172 190.760351,9.08203125 C191.102149,9.65495078 191.273046,10.3613239 191.273046,11.2011719 L191.273046,12.34375 C191.273046,12.7799501 191.328384,13.1022125 191.439062,13.3105469 C191.549739,13.5188812 191.732029,13.6425779 191.985937,13.6816406 L192.454687,13.7402344 L192.454687,15 L191.41953,15 C190.670829,15 190.138607,14.7395859 189.822851,14.21875 C189.507094,13.6979141 189.349218,13.06641 189.349218,12.3242188 L189.349218,11.2207031 C189.349218,10.4459597 189.124611,9.82422109 188.67539,9.35546875 C188.226169,8.88671641 187.623961,8.65234375 186.868749,8.65234375 L183.782812,8.65234375 L183.782812,13.4960938 L185.374609,13.7695312 L185.374609,15 L180.267187,15 L180.267187,13.7695312 L181.858984,13.4960938 L181.858984,2.29492188 L180.267187,2.02148438 L180.267187,0.791015625 L181.858984,0.791015625 L186.507421,0.791015625 Z M183.782812,7.13867188 L186.312109,7.13867188 C187.386333,7.13867188 188.167575,6.9335958 188.655859,6.5234375 C189.144142,6.1132792 189.38828,5.51432686 189.38828,4.7265625 C189.38828,3.97786084 189.153908,3.38541885 188.685155,2.94921875 C188.216403,2.51301865 187.490499,2.29492188 186.507421,2.29492188 L183.782812,2.29492188 L183.782812,7.13867188 Z M200.902343,13.7695312 L202.49414,13.4960938 L202.49414,2.29492188 L200.902343,2.02148438 L200.902343,0.78125 L206.009765,0.78125 L206.009765,2.02148438 L204.417968,2.29492188 L204.417968,7.0703125 L205.892577,7.0703125 L209.867187,2.15820312 L208.802733,2.02148438 L208.802733,0.78125 L213.314452,0.78125 L213.314452,2.02148438 L211.976562,2.265625 L207.630858,7.65625 L212.376952,13.5253906 L213.714843,13.7695312 L213.714843,15 L209.046874,15 L209.046874,13.7695312 L210.130858,13.6328125 L206.078124,8.58398438 L204.417968,8.58398438 L204.417968,13.4960938 L206.009765,13.7695312 L206.009765,15 L200.902343,15 L200.902343,13.7695312 Z" id="logo-black"></path>
        </g>
    </g>
</svg>