<?xml version="1.0" encoding="UTF-8"?>
<svg width="214px" height="16px" viewBox="0 0 214 16" version="1.1" xmlns="http://www.w3.org/2000/svg" xmlns:xlink="http://www.w3.org/1999/xlink">
    <!-- Generator: Sketch 40.1 (33804) - http://www.bohemiancoding.com/sketch -->
    <title>logo-brand</title>
    <desc>Created with Sketch.</desc>
    <defs></defs>
    <g id="Page-1" stroke="none" stroke-width="1" fill="none" fill-rule="evenodd">
        <g id="Group" transform="translate(0.000000, -26.000000)" fill="#8B7A68">
            <path d="M0.693359375,41 L0.693359375,39.7695312 L2.28515625,39.4960938 L2.28515625,28.2949219 L0.693359375,28.0214844 L0.693359375,26.78125 L11.6113281,26.78125 L11.6113281,30.1992188 L9.9609375,30.1992188 L9.8046875,28.2949219 L4.20898438,28.2949219 L4.20898438,32.8945312 L9.6484375,32.8945312 L9.6484375,34.4082031 L4.20898438,34.4082031 L4.20898438,39.4960938 L9.921875,39.4960938 L10.078125,37.5917969 L11.71875,37.5917969 L11.71875,41 L0.693359375,41 Z M30.8402343,30.9804688 L29.3851562,30.9804688 L29.023828,28.9492188 C28.7308578,28.7018217 28.3402367,28.4967456 27.851953,28.3339844 C27.3636693,28.1712231 26.7972688,28.0898438 26.1527343,28.0898438 C25.1305938,28.0898438 24.3460964,28.3063129 23.7992187,28.7392578 C23.2523409,29.1722027 22.9789062,29.7369757 22.9789062,30.4335938 C22.9789062,31.0520864 23.2572237,31.5680318 23.8138671,31.9814453 C24.3705105,32.3948588 25.2705666,32.7578109 26.5140624,33.0703125 C28.0114657,33.4414081 29.1491497,33.9882776 29.9271483,34.7109375 C30.705147,35.4335974 31.0941405,36.3287707 31.0941405,37.3964844 C31.0941405,38.5423234 30.6270228,39.4635382 29.6927733,40.1601562 C28.7585239,40.8567743 27.5362054,41.2050781 26.0257812,41.2050781 C24.9320257,41.2050781 23.9603557,41.0260435 23.1107421,40.6679688 C22.2611285,40.309894 21.5694036,39.8411487 21.0355468,39.2617188 L21.0355468,36.6152344 L22.4808593,36.6152344 L22.851953,38.65625 C23.2230486,38.9622411 23.6657525,39.2128896 24.180078,39.4082031 C24.6944035,39.6035166 25.3096317,39.7011719 26.0257812,39.7011719 C26.9958381,39.7011719 27.762432,39.4960958 28.3255858,39.0859375 C28.8887397,38.6757792 29.1703124,38.1191441 29.1703124,37.4160156 C29.1703124,36.7649707 28.9261742,36.2197288 28.4378905,35.7802734 C27.9496068,35.3408181 27.0869853,34.9713557 25.8499999,34.671875 C24.3460861,34.3138003 23.1709677,33.7864618 22.3246093,33.0898438 C21.4782509,32.3932257 21.055078,31.5175834 21.055078,30.4628906 C21.055078,29.3496038 21.5270785,28.4235063 22.4710937,27.6845703 C23.4151088,26.9456343 24.6423101,26.5761719 26.1527343,26.5761719 C27.148833,26.5761719 28.0553995,26.7470686 28.8724608,27.0888672 C29.6895222,27.4306658 30.3454401,27.8457007 30.8402343,28.3339844 L30.8402343,30.9804688 Z M50.8503904,31.1464844 L49.4929686,31.1464844 L49.1316404,29.1347656 C48.8191389,28.8287745 48.4350281,28.578126 47.9792967,28.3828125 C47.5235652,28.187499 46.9799509,28.0898438 46.3484373,28.0898438 C44.8705653,28.0898438 43.734509,28.6253202 42.9402342,29.6962891 C42.1459594,30.767258 41.7488279,32.1262938 41.7488279,33.7734375 L41.7488279,33.9980469 C41.7488279,35.6451905 42.1378214,37.0074816 42.9158201,38.0849609 C43.6938188,39.1624403 44.7729096,39.7011719 46.1531248,39.7011719 C46.7976593,39.7011719 47.3835909,39.6002614 47.9109373,39.3984375 C48.4382837,39.1966136 48.8451807,38.9492202 49.1316404,38.65625 L49.4929686,36.6445312 L50.8503904,36.6445312 L50.8503904,39.1738281 C50.4402321,39.7011745 49.8250039,40.1715474 49.0046873,40.5849609 C48.1843707,40.9983745 47.2338594,41.2050781 46.1531248,41.2050781 C44.3041572,41.2050781 42.7872453,40.5214912 41.6023436,39.1542969 C40.4174418,37.7871025 39.8249998,36.0683697 39.8249998,33.9980469 L39.8249998,33.7929688 C39.8249998,31.709625 40.4076763,29.9860094 41.5730467,28.6220703 C42.7384171,27.2581312 44.2650945,26.5761719 46.1531248,26.5761719 C47.2338594,26.5761719 48.1843707,26.7861307 49.0046873,27.2060547 C49.8250039,27.6259787 50.4402321,28.0963516 50.8503904,28.6171875 L50.8503904,31.1464844 Z M59.6691403,39.7695312 L60.7238278,39.6230469 L65.694531,26.78125 L67.3449216,26.78125 L72.2277341,39.6230469 L73.272656,39.7695312 L73.272656,41 L69.1906247,41 L69.1906247,39.7695312 L70.2648435,39.5839844 L69.3273435,36.9667969 L63.6339841,36.9667969 L62.6671872,39.5839844 L63.741406,39.7695312 L63.741406,41 L59.6691403,41 L59.6691403,39.7695312 Z M64.2296872,35.3554688 L68.741406,35.3554688 L66.5343747,29.2519531 L66.475781,29.2519531 L64.2296872,35.3554688 Z M88.1070309,26.78125 C89.6239655,26.78125 90.8039668,27.1718711 91.6470699,27.953125 C92.4901731,28.7343789 92.9117184,29.7630145 92.9117184,31.0390625 C92.9117184,32.3281314 92.4901731,33.3600222 91.6470699,34.1347656 C90.8039668,34.9095091 89.6239655,35.296875 88.1070309,35.296875 L85.0894527,35.296875 L85.0894527,39.4960938 L86.6812496,39.7695312 L86.6812496,41 L81.5738277,41 L81.5738277,39.7695312 L83.1656246,39.4960938 L83.1656246,28.2949219 L81.5738277,28.0214844 L81.5738277,26.78125 L83.1656246,26.78125 L88.1070309,26.78125 Z M85.0894527,33.7929688 L88.1070309,33.7929688 C89.0705774,33.7929688 89.7915988,33.5341823 90.2701168,33.0166016 C90.7486348,32.4990208 90.9878902,31.8463581 90.9878902,31.0585938 C90.9878902,30.2708294 90.7486348,29.6132839 90.2701168,29.0859375 C89.7915988,28.5585911 89.0705774,28.2949219 88.1070309,28.2949219 L85.0894527,28.2949219 L85.0894527,33.7929688 Z M101.378906,41 L101.378906,39.7695312 L102.970703,39.4960938 L102.970703,28.2949219 L101.378906,28.0214844 L101.378906,26.78125 L112.296875,26.78125 L112.296875,30.1992188 L110.646484,30.1992188 L110.490234,28.2949219 L104.894531,28.2949219 L104.894531,32.8945312 L110.333984,32.8945312 L110.333984,34.4082031 L104.894531,34.4082031 L104.894531,39.4960938 L110.607421,39.4960938 L110.763671,37.5917969 L112.404296,37.5917969 L112.404296,41 L101.378906,41 Z M137.385546,28.0214844 L135.940234,28.2460938 L137.766406,36.078125 L138.030077,37.8554688 L138.088671,37.8652344 L138.469531,36.078125 L141.086718,26.78125 L142.785937,26.78125 L145.41289,36.078125 L145.803515,37.9042969 L145.862109,37.9042969 L146.145312,36.078125 L147.932421,28.2460938 L146.477343,28.0214844 L146.477343,26.78125 L150.998827,26.78125 L150.998827,28.0214844 L149.856249,28.1679688 L146.760546,41 L145.041796,41 L142.229296,31.1367188 L141.97539,29.8574219 L141.916796,29.8574219 L141.672656,31.1367188 L138.821093,41 L137.112109,41 L134.016406,28.1679688 L132.873827,28.0214844 L132.873827,26.78125 L137.385546,26.78125 L137.385546,28.0214844 Z M171.721874,33.9980469 C171.721874,36.0683697 171.127805,37.7871025 169.939648,39.1542969 C168.751491,40.5214912 167.21342,41.2050781 165.32539,41.2050781 C163.489443,41.2050781 161.998573,40.5214912 160.852734,39.1542969 C159.706895,37.7871025 159.133984,36.0683697 159.133984,33.9980469 L159.133984,33.7929688 C159.133984,31.7291563 159.706895,30.0104235 160.852734,28.6367188 C161.998573,27.263014 163.489443,26.5761719 165.32539,26.5761719 C167.21342,26.5761719 168.751491,27.263014 169.939648,28.6367188 C171.127805,30.0104235 171.721874,31.7291563 171.721874,33.7929688 L171.721874,33.9980469 Z M169.798046,33.7734375 C169.798046,32.1197834 169.402542,30.770513 168.611523,29.7255859 C167.820503,28.6806588 166.725136,28.1582031 165.32539,28.1582031 C163.984237,28.1582031 162.937698,28.6822864 162.185741,29.7304688 C161.433785,30.7786511 161.057812,32.1262938 161.057812,33.7734375 L161.057812,33.9980469 C161.057812,35.6647219 161.433785,37.0205026 162.185741,38.0654297 C162.937698,39.1103568 163.984237,39.6328125 165.32539,39.6328125 C166.744668,39.6328125 167.844917,39.1119844 168.626171,38.0703125 C169.407425,37.0286406 169.798046,35.6712323 169.798046,33.9980469 L169.798046,33.7734375 Z M186.507421,26.7910156 C188.056908,26.7910156 189.245047,27.1344367 190.071874,27.8212891 C190.898701,28.5081415 191.312109,29.4830666 191.312109,30.7460938 C191.312109,31.4362014 191.120053,32.0481744 190.735937,32.5820312 C190.35182,33.1158881 189.801695,33.5358058 189.085546,33.8417969 C189.860289,34.0957044 190.418552,34.5091117 190.760351,35.0820312 C191.102149,35.6549508 191.273046,36.3613239 191.273046,37.2011719 L191.273046,38.34375 C191.273046,38.7799501 191.328384,39.1022125 191.439062,39.3105469 C191.549739,39.5188812 191.732029,39.6425779 191.985937,39.6816406 L192.454687,39.7402344 L192.454687,41 L191.41953,41 C190.670829,41 190.138607,40.7395859 189.822851,40.21875 C189.507094,39.6979141 189.349218,39.06641 189.349218,38.3242188 L189.349218,37.2207031 C189.349218,36.4459597 189.124611,35.8242211 188.67539,35.3554688 C188.226169,34.8867164 187.623961,34.6523438 186.868749,34.6523438 L183.782812,34.6523438 L183.782812,39.4960938 L185.374609,39.7695312 L185.374609,41 L180.267187,41 L180.267187,39.7695312 L181.858984,39.4960938 L181.858984,28.2949219 L180.267187,28.0214844 L180.267187,26.7910156 L181.858984,26.7910156 L186.507421,26.7910156 Z M183.782812,33.1386719 L186.312109,33.1386719 C187.386333,33.1386719 188.167575,32.9335958 188.655859,32.5234375 C189.144142,32.1132792 189.38828,31.5143269 189.38828,30.7265625 C189.38828,29.9778608 189.153908,29.3854188 188.685155,28.9492188 C188.216403,28.5130187 187.490499,28.2949219 186.507421,28.2949219 L183.782812,28.2949219 L183.782812,33.1386719 Z M200.902343,39.7695312 L202.49414,39.4960938 L202.49414,28.2949219 L200.902343,28.0214844 L200.902343,26.78125 L206.009765,26.78125 L206.009765,28.0214844 L204.417968,28.2949219 L204.417968,33.0703125 L205.892577,33.0703125 L209.867187,28.1582031 L208.802733,28.0214844 L208.802733,26.78125 L213.314452,26.78125 L213.314452,28.0214844 L211.976562,28.265625 L207.630858,33.65625 L212.376952,39.5253906 L213.714843,39.7695312 L213.714843,41 L209.046874,41 L209.046874,39.7695312 L210.130858,39.6328125 L206.078124,34.5839844 L204.417968,34.5839844 L204.417968,39.4960938 L206.009765,39.7695312 L206.009765,41 L200.902343,41 L200.902343,39.7695312 Z" id="logo-brand"></path>
        </g>
    </g>
</svg>