<?xml version="1.0" encoding="UTF-8"?>
<svg width="78px" height="72px" viewBox="0 0 78 72" version="1.1" xmlns="http://www.w3.org/2000/svg" xmlns:xlink="http://www.w3.org/1999/xlink">
    <!-- Generator: Sketch 40.1 (33804) - http://www.bohemiancoding.com/sketch -->
    <title>Slice</title>
    <desc>Created with Sketch.</desc>
    <defs></defs>
    <g id="Page-1" stroke="none" stroke-width="1" fill="none" fill-rule="evenodd">
        <path d="M9.828125,0 L60.171875,0 L35,25.171875 L9.828125,0 Z M54.828125,2.25 L15.171875,2.25 L35,22.078125 L54.828125,2.25 Z M14.75,72 L9.828125,72 L13.34375,68.484375 L14.609375,69.75 L14.75,69.75 L14.75,69.890625 L14.890625,70.03125 L14.75,70.171875 L14.75,72 Z M29.375,69.75 L33.875,69.75 L33.875,72 L29.375,72 L29.375,69.75 Z M42.875,69.75 L46.25,69.75 L46.25,72 L42.875,72 L42.875,69.75 Z M48.5,69.75 L53,69.75 L53,72 L48.5,72 L48.5,69.75 Z M23.75,69.75 L27.125,69.75 L27.125,72 L23.75,72 L23.75,69.75 Z M17,69.75 L21.5,69.75 L21.5,72 L17,72 L17,69.75 Z M36.125,69.75 L40.625,69.75 L40.625,72 L36.125,72 L36.125,69.75 Z M56.65625,68.484375 L60.171875,72 L55.25,72 L55.25,70.171875 L55.109375,70.03125 L55.25,69.890625 L55.25,69.75 L55.390625,69.75 L56.65625,68.484375 Z M49.203125,64.125 L46.25,61.171875 L47.796875,59.625 L50.75,62.578125 L49.203125,64.125 Z M53.5625,68.625 L50.609375,65.671875 L52.296875,63.984375 L55.25,66.9375 L53.5625,68.625 Z M40.203125,55.265625 L37.25,52.3125 L38.9375,50.625 L41.890625,53.578125 L40.203125,55.265625 Z M44.703125,59.625 L41.75,56.671875 L43.296875,55.125 L46.25,58.078125 L44.703125,59.625 Z M32.609375,49.21875 L35,46.828125 L37.390625,49.21875 L35.84375,50.765625 L35,49.921875 L34.15625,50.765625 L32.609375,49.21875 Z M29.796875,55.265625 L28.109375,53.578125 L31.0625,50.625 L32.75,52.3125 L29.796875,55.265625 Z M23.75,61.171875 L20.796875,64.125 L19.25,62.578125 L22.203125,59.625 L23.75,61.171875 Z M17.703125,63.984375 L19.390625,65.671875 L16.4375,68.625 L14.75,66.9375 L17.703125,63.984375 Z M28.25,56.671875 L25.296875,59.625 L23.75,58.078125 L26.703125,55.125 L28.25,56.671875 Z M8,34.3125 L10.25,34.3125 L10.25,36.5625 L8,36.5625 L8,34.3125 Z M12.5,34.875 L17,34.875 L17,37.125 L12.5,37.125 L12.5,34.875 Z M32.75,34.875 L37.25,34.875 L37.25,37.125 L32.75,37.125 L32.75,34.875 Z M39.5,34.875 L44,34.875 L44,37.125 L39.5,37.125 L39.5,34.875 Z M46.25,34.875 L50.75,34.875 L50.75,37.125 L46.25,37.125 L46.25,34.875 Z M26,34.875 L30.5,34.875 L30.5,37.125 L26,37.125 L26,34.875 Z M53,34.875 L57.5,34.875 L57.5,37.125 L53,37.125 L53,34.875 Z M19.25,34.875 L23.75,34.875 L23.75,37.125 L19.25,37.125 L19.25,34.875 Z M59.75,34.3125 L62,34.3125 L62,36.5625 L59.75,36.5625 L59.75,34.3125 Z M63.828125,6.890625 C73.1094214,13.5469083 77.75,23.2499363 77.75,36 C77.75,47.2500563 73.953163,56.2499662 66.359375,63 L75.5,63 L75.5,65.25 L63.125,65.25 L62,64.125 L62,51.75 L64.25,51.75 L64.25,61.875 C71.7500375,55.6874691 75.5,47.0625553 75.5,36 C75.5,23.99994 71.1406686,14.9531555 62.421875,8.859375 L63.828125,6.890625 L63.828125,6.890625 Z" id=":" fill="#ffffff"></path>
    </g>
</svg>
