<?xml version="1.0" encoding="UTF-8"?>
<svg width="72px" height="62px" viewBox="0 0 72 62" version="1.1" xmlns="http://www.w3.org/2000/svg" xmlns:xlink="http://www.w3.org/1999/xlink">
    <g stroke="none" stroke-width="1" fill="none" fill-rule="evenodd">
        <path d="M0,0.484375 L0,56.734375 L36,61.375 L72,56.734375 L72,0.484375 L36,5.125 L0,0.484375 Z M2.25,3.015625 L34.875,7.234375 L34.875,58.984375 L2.25,54.765625 L2.25,3.015625 Z M69.75,54.765625 L37.125,58.984375 L37.125,7.234375 L47.25,5.96875 L47.25,27.203125 L52.875,24.390625 L58.5,27.203125 L58.5,4.421875 L69.75,3.015625 L69.75,54.765625 Z M49.5,5.6875 L56.25,4.703125 L56.25,23.546875 L52.875,21.859375 L49.5,23.546875 L49.5,5.6875 Z M7.734375,14.125 L29.109375,16.375 L29.390625,14.125 L8.015625,11.875 L7.734375,14.125 Z M29.390625,25.375 L8.015625,23.125 L7.734375,25.375 L29.109375,27.625 L29.390625,25.375 Z M29.390625,36.625 L8.015625,34.375 L7.734375,36.625 L29.109375,38.875 L29.390625,36.625 Z M29.390625,47.875 L8.015625,45.625 L7.734375,47.875 L29.109375,50.125 L29.390625,47.875 Z M64.265625,36.625 L63.984375,34.375 L42.609375,36.625 L42.890625,38.875 L64.265625,36.625 Z M64.265625,47.875 L63.984375,45.625 L42.609375,47.875 L42.890625,50.125 L64.265625,47.875 Z" fill="#ffffff"></path>
    </g>
</svg>
