<?xml version="1.0" encoding="UTF-8"?>
<svg width="72px" height="58px" viewBox="0 0 72 58" version="1.1" xmlns="http://www.w3.org/2000/svg" xmlns:xlink="http://www.w3.org/1999/xlink">
    <g stroke="none" stroke-width="1" fill="none" fill-rule="evenodd">
        <path d="M60.75,9.875 L0,9.875 L0,57.125 L60.75,57.125 L60.75,9.875 Z M58.5,12.125 L58.5,51.359375 L44.015625,38.84375 L32.90625,45.59375 L16.875,27.3125 L2.25,42.078125 L2.25,12.125 L58.5,12.125 Z M2.25,54.875 L2.25,45.171875 L16.875,30.6875 L32.34375,48.40625 L43.734375,41.65625 L58.5,54.3125 L58.5,54.875 L2.25,54.875 Z M10.125,8.75 L12.375,8.75 L12.375,3.125 L69.75,3.125 L69.75,45.875 L61.875,45.875 L61.875,48.125 L72,48.125 L72,0.875 L10.125,0.875 L10.125,8.75 Z M45,32.375 C46.8750094,32.375 48.4687434,31.7187566 49.78125,30.40625 C51.0937566,29.0937434 51.75,27.5000094 51.75,25.625 C51.75,23.7499906 51.0937566,22.1562566 49.78125,20.84375 C48.4687434,19.5312434 46.8750094,18.875 45,18.875 C43.1249906,18.875 41.5312566,19.5312434 40.21875,20.84375 C38.9062434,22.1562566 38.25,23.7499906 38.25,25.625 C38.25,27.5000094 38.9062434,29.0937434 40.21875,30.40625 C41.5312566,31.7187566 43.1249906,32.375 45,32.375 L45,32.375 Z M45,21.125 C46.3125066,21.125 47.3906208,21.5468708 48.234375,22.390625 C49.0781292,23.2343792 49.5,24.3124934 49.5,25.625 C49.5,26.9375066 49.0781292,28.0156208 48.234375,28.859375 C47.3906208,29.7031292 46.3125066,30.125 45,30.125 C43.6874934,30.125 42.6093792,29.7031292 41.765625,28.859375 C40.9218708,28.0156208 40.5,26.9375066 40.5,25.625 C40.5,24.3124934 40.9218708,23.2343792 41.765625,22.390625 C42.6093792,21.5468708 43.6874934,21.125 45,21.125 L45,21.125 Z" fill="#ffffff"></path>
    </g>
</svg>
