<?xml version="1.0" encoding="UTF-8"?>
<svg width="73px" height="73px" viewBox="0 0 73 73" version="1.1" xmlns="http://www.w3.org/2000/svg" xmlns:xlink="http://www.w3.org/1999/xlink">
    <g stroke="none" stroke-width="1" fill="none" fill-rule="evenodd">
        <path d="M23.625,47.25 C29.62503,47.25 34.921852,45.1875206 39.515625,41.0625 L44.578125,46.125 L41.203125,49.5 L64.125,72.421875 L72.421875,64.125 L49.5,41.203125 L46.125,44.578125 L41.0625,39.515625 C45.1875206,34.921852 47.25,29.62503 47.25,23.625 C47.25,17.0624672 44.953148,11.484398 40.359375,6.890625 C35.765602,2.29685203 30.1875328,0 23.625,0 C17.0624672,0 11.484398,2.29685203 6.890625,6.890625 C2.29685203,11.484398 0,17.0624672 0,23.625 C0,30.1875328 2.29685203,35.765602 6.890625,40.359375 C11.484398,44.953148 17.0624672,47.25 23.625,47.25 L23.625,47.25 Z M69.328125,64.125 L64.125,69.328125 L44.296875,49.5 L49.5,44.296875 L69.328125,64.125 Z M23.625,2.25 C29.5312795,2.25 34.5702916,4.33591664 38.7421875,8.5078125 C42.9140834,12.6797084 45,17.7187205 45,23.625 C45,29.5312795 42.9140834,34.5702916 38.7421875,38.7421875 C34.5702916,42.9140834 29.5312795,45 23.625,45 C17.7187205,45 12.6797084,42.9140834 8.5078125,38.7421875 C4.33591664,34.5702916 2.25,29.5312795 2.25,23.625 C2.25,17.7187205 4.33591664,12.6797084 8.5078125,8.5078125 C12.6797084,4.33591664 17.7187205,2.25 23.625,2.25 L23.625,2.25 Z" fill="#ffffff"></path>
    </g>
</svg>
