<?xml version="1.0" encoding="UTF-8"?>
<svg width="74px" height="73px" viewBox="0 0 74 73" version="1.1" xmlns="http://www.w3.org/2000/svg" xmlns:xlink="http://www.w3.org/1999/xlink">
    <!-- Generator: Sketch 40.1 (33804) - http://www.bohemiancoding.com/sketch -->
    <title></title>
    <desc>Created with Sketch.</desc>
    <defs></defs>
    <g id="Page-1" stroke="none" stroke-width="1" fill="none" fill-rule="evenodd">
        <path d="M37,0.4296875 C32.0312252,0.4296875 27.3554907,1.37889676 22.9726563,3.27734375 C18.5898218,5.17579074 14.7695475,7.75388996 11.5117188,11.0117188 C8.25388996,14.2695475 5.67579074,18.0898218 3.77734375,22.4726563 C1.87889676,26.8554907 0.9296875,31.5312252 0.9296875,36.5 C0.9296875,41.4687748 1.87889676,46.1445093 3.77734375,50.5273438 C5.67579074,54.9101782 8.25388996,58.7304525 11.5117188,61.9882813 C14.7695475,65.24611 18.5898218,67.8242093 22.9726563,69.7226562 C27.3554907,71.6211032 32.0312252,72.5703125 37,72.5703125 C41.9687748,72.5703125 46.6445093,71.6211032 51.0273438,69.7226562 C55.4101782,67.8242093 59.2304525,65.24611 62.4882813,61.9882813 C65.74611,58.7304525 68.3242093,54.9101782 70.2226562,50.5273438 C72.1211032,46.1445093 73.0703125,41.4687748 73.0703125,36.5 C73.0703125,31.5312252 72.1211032,26.8554907 70.2226562,22.4726563 C68.3242093,18.0898218 65.74611,14.2695475 62.4882813,11.0117188 C59.2304525,7.75388996 55.4101782,5.17579074 51.0273438,3.27734375 C46.6445093,1.37889676 41.9687748,0.4296875 37,0.4296875 L37,0.4296875 Z M37,70.1796875 C32.3593518,70.1796875 28.0000204,69.30079 23.921875,67.5429688 C19.8437296,65.7851475 16.2812652,63.3711091 13.234375,60.3007812 C10.1874848,57.2304534 7.77344641,53.6562704 5.9921875,49.578125 C4.21092859,45.4999796 3.3203125,41.1406482 3.3203125,36.5 C3.3203125,31.8593518 4.21092859,27.5000204 5.9921875,23.421875 C7.77344641,19.3437296 10.1874848,15.7695466 13.234375,12.6992188 C16.2812652,9.6288909 19.8437296,7.21485254 23.921875,5.45703125 C28.0000204,3.69920996 32.3593518,2.8203125 37,2.8203125 C41.6406482,2.8203125 45.9999796,3.69920996 50.078125,5.45703125 C54.1562704,7.21485254 57.7187348,9.6288909 60.765625,12.6992188 C63.8125152,15.7695466 66.2265536,19.3437296 68.0078125,23.421875 C69.7890714,27.5000204 70.6796875,31.8593518 70.6796875,36.5 C70.6796875,41.1406482 69.7890714,45.4999796 68.0078125,49.578125 C66.2265536,53.6562704 63.8125152,57.2304534 60.765625,60.3007812 C57.7187348,63.3711091 54.1562704,65.7851475 50.078125,67.5429688 C45.9999796,69.30079 41.6406482,70.1796875 37,70.1796875 L37,70.1796875 Z M37.3515625,45.078125 C34.2109218,45.078125 31.1992332,45.7226498 28.3164063,47.0117188 C25.4335793,48.3007877 22.9140733,50.0937385 20.7578125,52.390625 C20.5234363,52.6250012 20.4179686,52.9062484 20.4414063,53.234375 C20.4648439,53.5625016 20.5937488,53.8437488 20.828125,54.078125 C21.0625012,54.3125012 21.355467,54.4179689 21.7070313,54.3945312 C22.0585955,54.3710936 22.3281241,54.2421887 22.515625,54.0078125 C24.4375096,51.9453022 26.6874871,50.3515681 29.265625,49.2265625 C31.8437629,48.1015569 34.5390484,47.5390625 37.3515625,47.5390625 C40.2109518,47.5390625 42.9413932,48.1132755 45.5429688,49.2617188 C48.1445443,50.410162 50.4062404,52.039052 52.328125,54.1484375 C52.4687507,54.2890632 52.6093743,54.3945309 52.75,54.4648438 C52.8906257,54.5351566 53.0546866,54.5703125 53.2421875,54.5703125 C53.3828132,54.5703125 53.5234368,54.5468752 53.6640625,54.5 C53.8046882,54.4531248 53.9218745,54.382813 54.015625,54.2890625 C54.2968764,54.0546863 54.4375,53.7734391 54.4375,53.4453125 C54.4375,53.1171859 54.3437509,52.8359387 54.15625,52.6015625 C51.9999892,50.2109255 49.4570459,48.3593816 46.5273438,47.046875 C43.5976416,45.7343684 40.5390784,45.078125 37.3515625,45.078125 L37.3515625,45.078125 Z M24.625,37.625 C25.8437561,37.625 26.898433,37.179692 27.7890625,36.2890625 C28.679692,35.398433 29.125,34.3437561 29.125,33.125 C29.125,31.9062439 28.679692,30.851567 27.7890625,29.9609375 C26.898433,29.070308 25.8437561,28.625 24.625,28.625 C23.4062439,28.625 22.351567,29.070308 21.4609375,29.9609375 C20.570308,30.851567 20.125,31.9062439 20.125,33.125 C20.125,34.3437561 20.570308,35.398433 21.4609375,36.2890625 C22.351567,37.179692 23.4062439,37.625 24.625,37.625 L24.625,37.625 Z M24.625,30.875 C25.234378,30.875 25.7617165,31.097654 26.2070312,31.5429688 C26.652346,31.9882835 26.875,32.515622 26.875,33.125 C26.875,33.734378 26.652346,34.2617165 26.2070312,34.7070312 C25.7617165,35.152346 25.234378,35.375 24.625,35.375 C24.015622,35.375 23.4882835,35.152346 23.0429688,34.7070312 C22.597654,34.2617165 22.375,33.734378 22.375,33.125 C22.375,32.515622 22.597654,31.9882835 23.0429688,31.5429688 C23.4882835,31.097654 24.015622,30.875 24.625,30.875 L24.625,30.875 Z M49.375,37.625 C50.5937561,37.625 51.648433,37.179692 52.5390625,36.2890625 C53.429692,35.398433 53.875,34.3437561 53.875,33.125 C53.875,31.9062439 53.429692,30.851567 52.5390625,29.9609375 C51.648433,29.070308 50.5937561,28.625 49.375,28.625 C48.1562439,28.625 47.101567,29.070308 46.2109375,29.9609375 C45.320308,30.851567 44.875,31.9062439 44.875,33.125 C44.875,34.3437561 45.320308,35.398433 46.2109375,36.2890625 C47.101567,37.179692 48.1562439,37.625 49.375,37.625 L49.375,37.625 Z M49.375,30.875 C49.984378,30.875 50.5117165,31.097654 50.9570312,31.5429688 C51.402346,31.9882835 51.625,32.515622 51.625,33.125 C51.625,33.734378 51.402346,34.2617165 50.9570312,34.7070312 C50.5117165,35.152346 49.984378,35.375 49.375,35.375 C48.765622,35.375 48.2382835,35.152346 47.7929688,34.7070312 C47.347654,34.2617165 47.125,33.734378 47.125,33.125 C47.125,32.515622 47.347654,31.9882835 47.7929688,31.5429688 C48.2382835,31.097654 48.765622,30.875 49.375,30.875 L49.375,30.875 Z" id="" fill="rgba(139, 122, 104, 0.1)"></path>
    </g>
</svg>
