<?xml version="1.0" encoding="UTF-8"?>
<svg width="66px" height="78px" viewBox="0 0 66 78" version="1.1" xmlns="http://www.w3.org/2000/svg" xmlns:xlink="http://www.w3.org/1999/xlink">
    <!-- Generator: Sketch 40.1 (33804) - http://www.bohemiancoding.com/sketch -->
    <title>Slice 2</title>
    <desc>Created with Sketch.</desc>
    <defs></defs>
    <g id="Page-1" stroke="none" stroke-width="1" fill="none" fill-rule="evenodd">
        <path d="M32.625,72 C41.625045,72 49.3124681,68.8125319 55.6875,62.4375 C62.0625319,56.0624681 65.25,48.375045 65.25,39.375 C65.25,30.374955 62.0625319,22.6875319 55.6875,16.3125 C49.5937195,10.2187195 42.2812927,7.03125141 33.75,6.75 L33.75,2.25 L39.375,2.25 L39.375,0 L25.875,0 L25.875,2.25 L31.5,2.25 L31.5,6.75 C22.9687073,7.03125141 15.6562805,10.2187195 9.5625,16.3125 C3.18746813,22.6875319 0,30.374955 0,39.375 C0,48.375045 3.18746813,56.0624681 9.5625,62.4375 C15.9375319,68.8125319 23.624955,72 32.625,72 L32.625,72 Z M11.109375,17.859375 C16.7344031,12.2343469 23.5312102,9.28125141 31.5,9 L31.5,12.375 L33.75,12.375 L33.75,9 C41.7187898,9.28125141 48.5155969,12.2343469 54.140625,17.859375 C59.7656531,23.4844031 62.7187486,30.2812102 63,38.25 L59.625,38.25 L59.625,40.5 L63,40.5 C62.7187486,48.4687898 59.7656531,55.2655969 54.140625,60.890625 C48.5155969,66.5156531 41.7187898,69.4687486 33.75,69.75 L33.75,66.375 L31.5,66.375 L31.5,69.75 C23.5312102,69.4687486 16.7344031,66.5156531 11.109375,60.890625 C5.48434688,55.2655969 2.53125141,48.4687898 2.25,40.5 L5.625,40.5 L5.625,38.25 L2.25,38.25 C2.53125141,30.2812102 5.48434688,23.4844031 11.109375,17.859375 L11.109375,17.859375 Z M12.234375,20.53125 L15.328125,23.765625 L17.015625,22.078125 L13.78125,18.984375 L12.234375,20.53125 Z M48.234375,56.671875 L51.46875,59.765625 L53.015625,58.21875 L49.921875,54.984375 L48.234375,56.671875 Z M48.234375,22.078125 L49.921875,23.765625 L53.015625,20.53125 L51.46875,18.984375 L48.234375,22.078125 Z M12.234375,58.21875 L13.78125,59.765625 L17.015625,56.671875 L15.46875,54.984375 L12.234375,58.21875 Z M32.625,43.875 C33.9375066,43.875 35.0156208,43.4531292 35.859375,42.609375 C36.7031292,41.7656208 37.125,40.6875066 37.125,39.375 C37.125,37.1249887 36.0000113,35.6718783 33.75,35.015625 L33.75,23.625 L31.5,23.625 L31.5,35.015625 C29.2499887,35.6718783 28.125,37.1249887 28.125,39.375 C28.125,40.6875066 28.5468708,41.7656208 29.390625,42.609375 C30.2343792,43.4531292 31.3124934,43.875 32.625,43.875 L32.625,43.875 Z M32.625,37.125 C34.1250075,37.125 34.875,37.8749925 34.875,39.375 C34.875,40.8750075 34.1250075,41.625 32.625,41.625 C31.1249925,41.625 30.375,40.8750075 30.375,39.375 C30.375,37.8749925 31.1249925,37.125 32.625,37.125 L32.625,37.125 Z" id="v" fill="#ffffff"></path>
    </g>
</svg>
