<?xml version="1.0" standalone="no"?>
<!DOCTYPE svg PUBLIC "-//W3C//DTD SVG 20010904//EN"
 "http://www.w3.org/TR/2001/REC-SVG-20010904/DTD/svg10.dtd">
<svg version="1.0" xmlns="http://www.w3.org/2000/svg"
 width="16.000000pt" height="16.000000pt" viewBox="0 0 16.000000 16.000000"
 preserveAspectRatio="xMidYMid meet">
<metadata>
Created by potrace 1.11, written by Peter Selinger 2001-2013
</metadata>
<g transform="translate(0.000000,16.000000) scale(0.002286,-0.002286)"
fill="#000000" stroke="none">
<path d="M1084 6055 c0 -215 2 -245 15 -246 9 0 23 -2 31 -4 8 -2 31 -6 50 -9
19 -4 58 -11 85 -16 28 -5 68 -12 90 -15 22 -3 112 -18 200 -33 l160 -27 3
-2208 c2 -2097 1 -2207 -15 -2208 -10 0 -25 -2 -33 -4 -27 -6 -73 -14 -170
-30 -52 -9 -167 -28 -255 -43 l-160 -28 -1 -242 -1 -242 2205 2 2206 3 0 662
c0 365 -3 666 -7 669 -9 9 -635 9 -644 0 -9 -8 -9 -10 -18 -131 -4 -55 -8
-111 -10 -125 -2 -14 -6 -68 -10 -120 -3 -52 -8 -111 -10 -130 -2 -19 -6 -71
-10 -115 -3 -44 -7 -89 -9 -100 -3 -20 -11 -20 -1144 -22 l-1142 -2 0 1002 0
1003 1085 -1 c716 0 1085 3 1086 10 1 6 2 139 3 298 l1 287 -45 1 c-25 0 -514
0 -1087 0 l-1043 0 0 904 c0 498 3 905 8 906 36 4 2216 3 2222 -1 5 -3 11 -39
15 -80 3 -41 8 -95 10 -120 2 -25 6 -79 10 -120 3 -41 8 -95 10 -120 3 -25 7
-83 11 -130 3 -47 7 -94 9 -105 1 -11 3 -31 4 -46 l1 -25 330 0 330 0 0 673 0
673 -2183 0 -2184 0 1 -245z"/>
</g>
</svg>
